<?xml version="1.0" encoding="UTF-8"?><svg id="a" xmlns="http://www.w3.org/2000/svg" xmlns:xlink="http://www.w3.org/1999/xlink" viewBox="0 0 72 72"><defs><style>.c{fill:url(#b);}.d{fill:#fff;}</style><linearGradient id="b" x1="10.54" y1="10.54" x2="61.46" y2="61.46" gradientTransform="matrix(1, 0, 0, 1, 0, 0)" gradientUnits="userSpaceOnUse"><stop offset="0" stop-color="#1677f1"/><stop offset=".18" stop-color="#176ee9"/><stop offset=".46" stop-color="#1d55d3"/><stop offset=".82" stop-color="#252eb0"/><stop offset="1" stop-color="#2b189c"/></linearGradient></defs><path class="c" d="M72,36C72,16.12,55.88,0,36,0S0,16.12,0,36c0,17.97,13.16,32.86,30.37,35.56v-25.16h-9.14v-10.41h9.14v-7.93c0-9.02,5.37-14.01,13.6-14.01,3.94,0,8.06,.7,8.06,.7v8.86h-4.54c-4.47,0-5.87,2.78-5.87,5.62v6.75h9.98l-1.6,10.41h-8.39v25.16c17.21-2.7,30.37-17.59,30.37-35.56Z"/><path class="d" d="M50.01,46.41l1.6-10.41h-9.98v-6.75c0-2.85,1.39-5.62,5.87-5.62h4.54V14.77s-4.12-.7-8.06-.7c-8.22,0-13.6,4.98-13.6,14.01v7.93h-9.14v10.41h9.14v25.16c1.83,.29,3.71,.44,5.63,.44s3.79-.15,5.63-.44v-25.16h8.39Z"/></svg>