<?xml version="1.0" encoding="UTF-8"?><svg id="a" xmlns="http://www.w3.org/2000/svg" xmlns:xlink="http://www.w3.org/1999/xlink" viewBox="0 0 72 72"><defs><style>.c{fill:url(#b);}.d{fill:#fff;}</style><linearGradient id="b" x1="61.27" y1="10.62" x2="10.51" y2="61.38" gradientTransform="matrix(1, 0, 0, 1, 0, 0)" gradientUnits="userSpaceOnUse"><stop offset="0" stop-color="#ffe185"/><stop offset=".21" stop-color="#ffbb36"/><stop offset=".38" stop-color="#ff5176"/><stop offset=".52" stop-color="#f63395"/><stop offset=".74" stop-color="#a436d2"/><stop offset="1" stop-color="#5f4eed"/></linearGradient></defs><circle class="c" cx="35.89" cy="36" r="35.89"/><g><path class="d" d="M47.03,22.42c-1.36,0-2.47,1.1-2.47,2.47s1.1,2.47,2.47,2.47,2.47-1.1,2.47-2.47-1.1-2.47-2.47-2.47Z"/><path class="d" d="M36.07,25.59c-5.71,0-10.36,4.65-10.36,10.36s4.65,10.36,10.36,10.36,10.36-4.65,10.36-10.36-4.65-10.36-10.36-10.36Zm0,17c-3.66,0-6.64-2.98-6.64-6.64s2.98-6.64,6.64-6.64,6.64,2.98,6.64,6.64-2.98,6.64-6.64,6.64Z"/><path class="d" d="M44.29,56.99H27.49c-6.97,0-12.64-5.67-12.64-12.64V27.55c0-6.97,5.67-12.64,12.64-12.64h16.8c6.97,0,12.64,5.67,12.64,12.64v16.8c0,6.97-5.67,12.64-12.64,12.64ZM27.49,18.87c-4.79,0-8.68,3.89-8.68,8.68v16.8c0,4.79,3.89,8.68,8.68,8.68h16.8c4.79,0,8.68-3.89,8.68-8.68V27.55c0-4.79-3.89-8.68-8.68-8.68H27.49Z"/></g></svg>