<?xml version="1.0" encoding="UTF-8"?><svg id="a" xmlns="http://www.w3.org/2000/svg" xmlns:xlink="http://www.w3.org/1999/xlink" viewBox="0 0 72 72"><defs><style>.c{fill:url(#b);}.d{fill:#fff;}.d,.e,.f{fill-rule:evenodd;}.e{fill:#ff1753;}.f{fill:#00c9d0;}</style><linearGradient id="b" x1="10.56" y1="10.14" x2="61.91" y2="61.49" gradientTransform="matrix(1, 0, 0, 1, 0, 0)" gradientUnits="userSpaceOnUse"><stop offset="0" stop-color="#23004a"/><stop offset=".96" stop-color="#010003"/><stop offset="1" stop-color="#000"/></linearGradient></defs><ellipse class="c" cx="36.24" cy="35.81" rx="36.09" ry="36.53"/><g><path class="e" d="M46,29.11c2.95,2.14,6.57,3.39,10.48,3.39v-7.61c-.74,0-1.48-.08-2.2-.23v5.99c-3.91,0-7.52-1.26-10.48-3.39v15.52c0,7.77-6.22,14.06-13.9,14.06-2.86,0-5.53-.88-7.74-2.38,2.52,2.61,6.04,4.23,9.94,4.23,7.68,0,13.9-6.3,13.9-14.06v-15.52h0Zm2.71-7.67c-1.51-1.67-2.5-3.82-2.71-6.21v-.98h-2.09c.52,3.03,2.32,5.62,4.8,7.19h0Zm-21.69,27.07c-.84-1.12-1.3-2.49-1.3-3.89,0-3.55,2.85-6.43,6.36-6.43,.65,0,1.3,.1,1.93,.3v-7.78c-.73-.1-1.46-.14-2.2-.13v6.05c-.62-.2-1.27-.3-1.93-.3-3.51,0-6.36,2.88-6.36,6.43,0,2.51,1.42,4.69,3.5,5.75Z"/><path class="d" d="M43.8,27.26c2.95,2.14,6.57,3.39,10.48,3.39v-5.99c-2.18-.47-4.11-1.62-5.56-3.23-2.48-1.57-4.27-4.16-4.8-7.19h-5.48v30.39c-.01,3.54-2.85,6.41-6.36,6.41-2.06,0-3.9-1-5.06-2.54-2.07-1.06-3.5-3.23-3.5-5.75,0-3.55,2.85-6.43,6.36-6.43,.67,0,1.32,.11,1.93,.3v-6.05c-7.54,.16-13.6,6.39-13.6,14.06,0,3.83,1.51,7.3,3.96,9.83,2.21,1.5,4.87,2.38,7.74,2.38,7.68,0,13.9-6.3,13.9-14.06v-15.52Z"/><path class="f" d="M54.27,24.66v-1.62c-1.97,0-3.89-.55-5.56-1.61,1.48,1.64,3.42,2.76,5.56,3.23Zm-10.36-10.41c-.05-.29-.09-.58-.12-.87v-.98h-7.56v30.39c-.01,3.54-2.85,6.41-6.36,6.41-1.03,0-2-.25-2.86-.69,1.16,1.54,3,2.54,5.06,2.54,3.5,0,6.35-2.87,6.36-6.41V14.25h5.48Zm-12.11,16.33v-1.72c-.63-.09-1.27-.13-1.91-.13-7.68,0-13.9,6.3-13.9,14.06,0,4.87,2.45,9.16,6.16,11.68-2.45-2.53-3.96-6-3.96-9.83,0-7.67,6.06-13.9,13.6-14.06h0Z"/></g></svg>