<?xml version="1.0" encoding="UTF-8"?><svg id="a" xmlns="http://www.w3.org/2000/svg" xmlns:xlink="http://www.w3.org/1999/xlink" viewBox="0 0 72 72"><defs><style>.c{fill:url(#b);}.d{fill:#fff;}</style><linearGradient id="b" x1="61.47" y1="10.53" x2="10.63" y2="61.38" gradientTransform="matrix(1, 0, 0, 1, 0, 0)" gradientUnits="userSpaceOnUse"><stop offset="0" stop-color="red"/><stop offset="1" stop-color="#9b0000"/></linearGradient></defs><circle class="c" cx="36.05" cy="35.95" r="35.95"/><path class="d" d="M55.3,30.72c0-4.77-3.87-8.63-8.63-8.63H24.59c-4.77,0-8.63,3.87-8.63,8.63v10.27c0,4.77,3.87,8.63,8.63,8.63h22.08c4.77,0,8.63-3.87,8.63-8.63v-10.27Zm-12.98,5.91l-9.9,4.9c-.39,.21-1.71-.07-1.71-.51v-10.05c0-.45,1.33-.73,1.72-.51l9.48,5.16c.4,.23,.81,.8,.41,1.02Z"/></svg>