<?xml version="1.0" encoding="UTF-8"?><svg id="a" xmlns="http://www.w3.org/2000/svg" viewBox="0 0 960.15 255"><defs><style>.b{fill:#6b3c7d;}.c{fill:#080808;}</style></defs><g><rect class="c" x=".65" y=".5" width="959" height="254"/><path d="M959.15,1V254H1.15V1H959.15m1-1H.15V255H960.15V0h0Z"/></g><g><path class="b" d="M33.44,133.35V51.94h18.18v81.41h-18.18ZM87.46,51.94l-16.38,40.19,16.38,41.22h-19.71l-15.74-41.22,15.74-40.19h19.71Z"/><path class="b" d="M94.62,51.94h18.18v81.41h-18.18V51.94Z"/><path class="b" d="M142.88,119.91h23.42v13.44h-41.6V51.94h18.18V119.91Z"/><path class="b" d="M190.36,119.91h23.42v13.44h-41.6V51.94h18.18V119.91Z"/><path class="b" d="M256.79,133.35l-2.82-14.72h-18.56l-2.82,14.72h-18.05l18.43-81.41h23.3l18.94,81.41h-18.43Zm-18.82-28.03h13.31l-6.66-34.43-6.66,34.43Z"/><path class="b" d="M297.62,133.35h-16.13V51.94h19.97l13.44,46.08,13.44-46.08h19.97v81.41h-16.13v-54.66l-10.5,36.99h-13.57l-10.5-36.86v54.53Z"/><path class="b" d="M419.86,133.35l-2.82-14.72h-18.56l-2.82,14.72h-18.05l18.43-81.41h23.3l18.94,81.41h-18.43Zm-18.82-28.03h13.31l-6.66-34.43-6.66,34.43Z"/><path class="b" d="M462.74,119.91h23.42v13.44h-41.6V51.94h18.18V119.91Z"/><path class="b" d="M510.23,119.91h23.42v13.44h-41.6V51.94h18.18V119.91Z"/><path class="b" d="M590.74,116.71v-14.72c0-1.11-.26-1.9-.77-2.37-.51-.47-1.41-.7-2.69-.7h-11.26c-10.07,0-15.1-4.78-15.1-14.34v-18.56c0-9.39,5.38-14.08,16.13-14.08h15.62c10.75,0,16.13,4.69,16.13,14.08v10.62h-18.3v-8.06c0-2.13-1.15-3.2-3.46-3.2h-4.35c-2.3,0-3.46,1.07-3.46,3.2v14.34c0,1.11,.26,1.9,.77,2.37,.51,.47,1.41,.7,2.69,.7h11.01c5.46,0,9.39,1.17,11.78,3.52,2.39,2.35,3.58,5.82,3.58,10.43v19.2c0,9.47-5.38,14.21-16.13,14.21h-15.49c-10.84,0-16.26-4.74-16.26-14.21v-10.5h18.3v8.06c0,2.13,1.15,3.2,3.46,3.2h4.35c2.3,0,3.46-1.07,3.46-3.2Z"/><path class="b" d="M662.03,51.94v13.44h-14.98v67.97h-18.3V65.38h-14.85v-13.44h48.13Z"/><path class="b" d="M699.53,51.94h18.3V119.14c0,9.47-5.42,14.21-16.26,14.21h-17.15c-10.75,0-16.13-4.74-16.13-14.21V51.94h18.3V116.71c0,2.13,1.11,3.2,3.33,3.2h6.14c2.3,0,3.46-1.07,3.46-3.2V51.94Z"/><path class="b" d="M730.12,51.94h33.92c10.84,0,16.26,4.69,16.26,14.08v53.12c0,9.47-5.42,14.21-16.26,14.21h-33.92V51.94Zm31.87,65.66v-49.92c0-2.13-1.15-3.2-3.46-3.2h-10.11v56.32h10.11c2.3,0,3.46-1.07,3.46-3.2Z"/><path class="b" d="M791.69,51.94h18.18v81.41h-18.18V51.94Z"/><path class="b" d="M837.51,51.94h17.15c10.75,0,16.13,4.69,16.13,14.08v53.12c0,9.47-5.38,14.21-16.13,14.21h-17.15c-10.84,0-16.26-4.74-16.26-14.21v-53.12c0-9.39,5.42-14.08,16.26-14.08Zm14.98,64.77v-48.13c0-2.13-1.11-3.2-3.33-3.2h-6.14c-2.3,0-3.46,1.07-3.46,3.2v48.13c0,2.13,1.15,3.2,3.46,3.2h6.14c2.22,0,3.33-1.07,3.33-3.2Z"/><path class="b" d="M910.09,116.71v-14.72c0-1.11-.26-1.9-.77-2.37-.51-.47-1.41-.7-2.69-.7h-11.26c-10.07,0-15.1-4.78-15.1-14.34v-18.56c0-9.39,5.38-14.08,16.13-14.08h15.62c10.75,0,16.13,4.69,16.13,14.08v10.62h-18.3v-8.06c0-2.13-1.15-3.2-3.46-3.2h-4.35c-2.3,0-3.46,1.07-3.46,3.2v14.34c0,1.11,.26,1.9,.77,2.37,.51,.47,1.41,.7,2.69,.7h11.01c5.46,0,9.39,1.17,11.78,3.52,2.39,2.35,3.58,5.82,3.58,10.43v19.2c0,9.47-5.38,14.21-16.13,14.21h-15.49c-10.84,0-16.26-4.74-16.26-14.21v-10.5h18.3v8.06c0,2.13,1.15,3.2,3.46,3.2h4.35c2.3,0,3.46-1.07,3.46-3.2Z"/></g><g><path class="b" d="M187.79,217.08h-4.48v-47.27h5.7l8.13,30.4,8.21-30.4h5.7v47.27h-4.48v-35.8l-6.61,25.54h-5.55l-6.61-25.54v35.8Z"/><path class="b" d="M234.91,217.08l-1.98-12.01h-9.58l-1.75,12.01h-5.24l7.37-47.27h8.28l8.13,47.27h-5.24Zm-10.94-16.49h8.28l-4.41-27.13-3.88,27.13Z"/><path class="b" d="M245.47,217.08v-47.27h5.17v47.27h-5.17Zm21.28-47.27l-10.18,23.86,10.03,23.41h-5.62l-9.8-23.41,9.96-23.86h5.62Z"/><path class="b" d="M272.45,169.81h5.17v47.27h-5.17v-47.27Z"/><path class="b" d="M302.24,169.81h4.79v47.27h-5.7l-9.8-36.63v36.63h-4.79v-47.27h6.08l9.42,35.34v-35.34Z"/><path class="b" d="M334.39,183.03h-5.24v-6.38c0-1.01-.15-1.66-.46-1.94-.3-.28-.94-.42-1.9-.42h-4.18c-1.01,0-1.66,.14-1.94,.42-.28,.28-.42,.93-.42,1.94v33.67c0,.96,.14,1.6,.42,1.9,.28,.3,.92,.46,1.94,.46h4.18c.96,0,1.6-.15,1.9-.46,.3-.3,.46-.94,.46-1.9v-12.54h-3.8v-4.48h9.04v17.86c0,4-2,6-6,6h-7.37c-4,0-6-2-6-6v-35.34c0-4,2-6,6-6h7.37c4,0,6,2,6,6v7.22Z"/><path class="b" d="M356.35,217.08h-4.48v-47.27h5.7l8.13,30.4,8.21-30.4h5.7v47.27h-4.48v-35.8l-6.61,25.54h-5.55l-6.61-25.54v35.8Z"/><path class="b" d="M403.47,217.08l-1.98-12.01h-9.58l-1.75,12.01h-5.24l7.37-47.27h8.28l8.13,47.27h-5.24Zm-10.94-16.49h8.28l-4.41-27.13-3.88,27.13Z"/><path class="b" d="M414.03,169.81h14.97c4,0,6,2,6,6v35.26c0,4-2,6-6,6h-14.97v-47.27Zm15.73,40.43v-33.59c0-1.01-.15-1.66-.46-1.94-.3-.28-.94-.42-1.9-.42h-8.13v38.3h8.13c.96,0,1.6-.14,1.9-.42,.3-.28,.46-.92,.46-1.94Z"/><path class="b" d="M458.49,169.81h4.79v47.27h-5.7l-9.8-36.63v36.63h-4.79v-47.27h6.08l9.42,35.34v-35.34Z"/><path class="b" d="M476.88,212.59h13v4.48h-18.24v-47.27h17.71v4.48h-12.46v15.96h10.19v4.48h-10.19v17.86Z"/><path class="b" d="M507.97,210.24v-12.92c0-1.01-.15-1.66-.46-1.94-.3-.28-.94-.42-1.9-.42h-5.17c-4,0-6-2-6-6v-13.15c0-4,2-6,6-6h6.69c4,0,6,2,6,6v7.3h-5.24v-6.46c0-1.01-.14-1.66-.42-1.94-.28-.28-.92-.42-1.94-.42h-3.5c-1.01,0-1.66,.14-1.94,.42s-.42,.93-.42,1.94v11.48c0,.96,.14,1.6,.42,1.9,.28,.3,.92,.46,1.94,.46h5.17c4,0,6,2,6,6v14.59c0,4-2,6-6,6h-6.61c-4,0-6-2-6-6v-7.3h5.24v6.46c0,1.01,.14,1.66,.42,1.94,.28,.28,.92,.42,1.94,.42h3.42c.96,0,1.6-.14,1.9-.42,.3-.28,.46-.92,.46-1.94Z"/><path class="b" d="M532.82,210.24v-12.92c0-1.01-.15-1.66-.46-1.94-.3-.28-.94-.42-1.9-.42h-5.17c-4,0-6-2-6-6v-13.15c0-4,2-6,6-6h6.69c4,0,6,2,6,6v7.3h-5.24v-6.46c0-1.01-.14-1.66-.42-1.94-.28-.28-.92-.42-1.94-.42h-3.5c-1.01,0-1.66,.14-1.94,.42s-.42,.93-.42,1.94v11.48c0,.96,.14,1.6,.42,1.9,.28,.3,.92,.46,1.94,.46h5.17c4,0,6,2,6,6v14.59c0,4-2,6-6,6h-6.61c-4,0-6-2-6-6v-7.3h5.24v6.46c0,1.01,.14,1.66,.42,1.94,.28,.28,.92,.42,1.94,.42h3.42c.96,0,1.6-.14,1.9-.42,.3-.28,.46-.92,.46-1.94Z"/><path class="b" d="M555.92,169.81h5.17v47.27h-5.17v-47.27Z"/><path class="b" d="M585.71,169.81h4.79v47.27h-5.7l-9.8-36.63v36.63h-4.79v-47.27h6.08l9.42,35.34v-35.34Z"/><path class="b" d="M615.43,169.81v4.48h-7.6v42.79h-5.17v-42.79h-7.6v-4.48h20.37Z"/><path class="b" d="M625.61,169.81h7.75c4,0,6,2,6,6v35.26c0,4-2,6-6,6h-7.75c-4,0-6-2-6-6v-35.26c0-4,2-6,6-6Zm8.59,40.43v-33.59c0-1.01-.15-1.66-.46-1.94-.3-.28-.94-.42-1.9-.42h-4.71c-.96,0-1.6,.14-1.9,.42-.3,.28-.46,.93-.46,1.94v33.59c0,1.01,.15,1.66,.46,1.94,.3,.28,.94,.42,1.9,.42h4.71c.96,0,1.6-.14,1.9-.42,.3-.28,.46-.92,.46-1.94Z"/><path class="b" d="M661.71,217.08h-4.48v-47.27h5.7l8.13,30.4,8.21-30.4h5.7v47.27h-4.48v-35.8l-6.61,25.54h-5.55l-6.61-25.54v35.8Z"/><path class="b" d="M698.57,212.59h13v4.48h-18.24v-47.27h17.71v4.48h-12.46v15.96h10.18v4.48h-10.18v17.86Z"/><path class="b" d="M733.83,169.81v4.48h-7.6v42.79h-5.17v-42.79h-7.6v-4.48h20.37Z"/><path class="b" d="M753.9,217.08l-1.98-12.01h-9.58l-1.75,12.01h-5.24l7.37-47.27h8.28l8.13,47.27h-5.24Zm-10.94-16.49h8.28l-4.41-27.13-3.88,27.13Z"/><path class="b" d="M769.63,212.59h10.87v4.48h-16.04v-47.27h5.17v42.79Z"/></g></svg>